<svg id="レイヤー_1" data-name="レイヤー 1" xmlns="http://www.w3.org/2000/svg" viewBox="0 0 123.41 123.41"><defs><style>.cls-1{fill:#fff;stroke:#231815;stroke-miterlimit:10;stroke-width:1.41px;}.cls-2{fill:#231815;}</style></defs><circle class="cls-1" cx="61.71" cy="61.71" r="61"/><path class="cls-2" d="M298.15,402.55h3.12l3.82,12.77c.84,2.76,1.39,5,2.29,7.78h.12c.87-2.77,1.45-5,2.29-7.78l3.79-12.77h3l-7.49,23.57h-3.44Z" transform="translate(-271.87 -371.78)"/><path class="cls-2" d="M319,403.17a2,2,0,0,1,4.05,0,2,2,0,0,1-4.05,0Zm.55,5.49h2.93v17.46h-2.93Z" transform="translate(-271.87 -371.78)"/><path class="cls-2" d="M327.08,417.41c0-5.66,3.83-9.2,7.88-9.2,4.44,0,6.94,3.22,6.94,8.2a10.68,10.68,0,0,1-.13,1.67H330c.19,3.73,2.47,6.11,5.78,6.11a7.53,7.53,0,0,0,4.38-1.38l1.06,1.93a10.47,10.47,0,0,1-5.79,1.8C330.81,426.54,327.08,423.16,327.08,417.41ZM339.33,416c0-3.53-1.61-5.43-4.34-5.43-2.47,0-4.66,2-5,5.43Z" transform="translate(-271.87 -371.78)"/><path class="cls-2" d="M344.12,408.66h3l2.6,10.1c.36,1.67.71,3.24,1,4.88h.16c.39-1.64.74-3.24,1.19-4.88l2.7-10.1h2.87l2.73,10.1c.42,1.67.8,3.24,1.22,4.88h.13c.38-1.64.71-3.21,1.09-4.88l2.57-10.1h2.77l-4.69,17.46h-3.54l-2.54-9.42c-.45-1.64-.77-3.25-1.19-5h-.16c-.39,1.77-.74,3.41-1.19,5.08l-2.44,9.36H349Z" transform="translate(-271.87 -371.78)"/><path class="cls-2" d="M296.77,442.27h2.41l.26,2.54h.09c1.51-1.67,3.35-3,5.43-3a4.62,4.62,0,0,1,4.83,3.35c1.8-2,3.63-3.35,5.75-3.35,3.6,0,5.31,2.38,5.31,6.85v11.06h-2.93V449.06c0-3.28-1-4.67-3.25-4.67-1.35,0-2.76.87-4.4,2.67v12.67h-2.93V449.06c0-3.28-1-4.67-3.24-4.67-1.32,0-2.8.87-4.41,2.67v12.67h-2.92Z" transform="translate(-271.87 -371.78)"/><path class="cls-2" d="M325.22,451c0-5.82,3.82-9.2,8.1-9.2s8.1,3.38,8.1,9.2-3.82,9.13-8.1,9.13S325.22,456.8,325.22,451Zm13.18,0c0-4-2.06-6.75-5.08-6.75s-5.05,2.73-5.05,6.75,2,6.68,5.05,6.68S338.4,455,338.4,451Z" transform="translate(-271.87 -371.78)"/><path class="cls-2" d="M346,442.27h2.41l.26,3.19h.09c1.22-2.22,3-3.64,5-3.64a3.72,3.72,0,0,1,1.87.39l-.55,2.57a4,4,0,0,0-1.7-.29c-1.45,0-3.25,1-4.41,4v11.22H346Z" transform="translate(-271.87 -371.78)"/><path class="cls-2" d="M357.17,451c0-5.66,3.83-9.2,7.88-9.2,4.44,0,6.95,3.22,6.95,8.2a12.07,12.07,0,0,1-.13,1.67H360.1c.19,3.73,2.48,6.11,5.79,6.11a7.52,7.52,0,0,0,4.37-1.38l1.06,1.93a10.44,10.44,0,0,1-5.79,1.8C360.9,460.15,357.17,456.77,357.17,451Zm12.25-1.42c0-3.53-1.6-5.43-4.34-5.43-2.47,0-4.66,2-5,5.43Z" transform="translate(-271.87 -371.78)"/></svg>